<svg id="svg" version="1.1" xmlns="http://www.w3.org/2000/svg" xmlns:xlink="http://www.w3.org/1999/xlink" width="400" height="400" viewBox="0, 0, 400,400"><g id="svgg"><path id="path0" d="M181.321 76.005 C 178.848 77.001,179.022 72.128,178.781 147.000 C 178.617 197.948,178.438 215.752,178.070 218.000 C 175.434 234.102,168.868 246.865,157.389 258.200 C 153.201 262.335,150.356 264.599,140.900 271.318 C 139.415 272.374,136.310 274.588,134.000 276.240 C 131.690 277.892,129.217 279.610,128.505 280.058 C 126.160 281.534,125.870 285.201,127.922 287.435 C 128.308 287.856,128.979 288.771,129.412 289.469 C 129.845 290.166,131.280 292.215,132.600 294.022 C 135.083 297.420,135.964 298.658,139.269 303.400 C 140.343 304.940,141.565 306.650,141.985 307.200 C 142.406 307.750,144.743 311.080,147.179 314.600 C 149.615 318.120,152.161 321.681,152.837 322.512 L 154.066 324.025 155.365 322.912 C 157.705 320.909,158.983 319.986,160.100 319.492 C 160.705 319.224,161.200 318.875,161.200 318.716 C 161.200 318.558,162.415 317.620,163.900 316.632 C 165.385 315.645,167.500 314.193,168.600 313.406 C 169.700 312.619,171.320 311.501,172.200 310.923 C 173.080 310.344,174.790 309.134,176.000 308.235 C 177.210 307.336,178.497 306.420,178.861 306.200 C 179.504 305.810,185.183 301.507,186.394 300.492 C 194.049 294.072,196.375 292.046,199.357 289.197 C 201.313 287.329,203.113 285.565,203.357 285.278 C 203.601 284.991,204.340 284.171,205.000 283.456 C 209.703 278.361,215.386 270.736,217.842 266.226 C 220.304 261.705,223.587 254.738,224.151 252.839 C 224.501 251.661,224.962 250.487,225.175 250.230 C 225.649 249.660,227.367 243.480,228.409 238.600 C 228.831 236.620,229.450 233.740,229.784 232.200 C 230.118 230.660,230.580 226.880,230.810 223.800 C 231.041 220.720,231.412 216.760,231.634 215.000 C 231.857 213.240,232.205 200.730,232.408 187.200 C 232.842 158.203,233.434 134.574,234.046 121.820 L 234.486 112.640 235.731 111.320 L 236.976 110.000 244.629 110.000 L 252.283 110.000 252.537 113.014 C 252.677 114.671,252.929 119.396,253.096 123.514 L 253.400 131.000 253.648 125.000 C 253.785 121.700,253.920 110.039,253.948 99.087 C 254.007 76.582,254.029 76.779,251.332 76.030 C 249.432 75.502,182.628 75.478,181.321 76.005 " stroke="none" fill="#f8fae9" fill-rule="evenodd"></path><path id="path1" d="M247.800 212.079 C 246.920 212.283,245.660 212.653,245.000 212.900 C 244.340 213.148,242.231 213.419,240.312 213.503 C 235.163 213.729,234.609 214.337,234.209 220.203 C 234.045 222.614,233.484 226.210,232.963 228.193 C 232.441 230.177,232.012 232.542,232.007 233.449 C 232.003 234.356,231.572 236.426,231.050 238.049 C 230.527 239.672,229.798 242.380,229.430 244.068 C 229.061 245.755,228.518 247.336,228.223 247.581 C 227.928 247.825,227.570 248.807,227.427 249.761 C 227.284 250.716,226.818 252.180,226.392 253.016 C 225.966 253.851,225.406 255.179,225.148 255.967 C 224.691 257.362,222.728 261.595,221.980 262.800 C 221.775 263.130,221.154 264.210,220.600 265.200 C 219.415 267.317,219.146 267.752,216.884 271.191 C 214.592 274.677,213.753 275.818,210.118 280.393 C 205.923 285.672,193.124 297.337,183.000 305.107 C 182.213 305.711,175.378 310.639,174.255 311.412 C 173.625 311.845,172.345 312.740,171.411 313.400 C 170.477 314.060,168.473 315.447,166.956 316.481 C 165.440 317.516,163.300 319.009,162.200 319.798 C 161.100 320.587,159.366 321.768,158.346 322.423 C 154.835 324.675,154.944 325.827,159.232 331.800 C 162.256 336.013,163.141 337.279,164.014 338.642 C 165.941 341.647,169.305 341.595,173.009 338.503 C 173.735 337.896,175.618 336.500,177.193 335.400 C 178.767 334.300,181.348 332.463,182.927 331.318 C 184.507 330.172,186.520 328.717,187.400 328.084 C 188.746 327.116,191.574 325.004,197.946 320.206 C 208.202 312.482,222.062 298.983,227.519 291.400 C 227.678 291.180,228.364 290.280,229.045 289.400 C 231.427 286.320,234.782 281.226,236.601 277.928 C 237.610 276.097,238.596 274.330,238.791 274.000 C 239.994 271.969,243.998 262.712,244.004 261.950 C 244.006 261.647,244.436 260.481,244.959 259.357 C 245.482 258.233,246.042 256.523,246.203 255.557 C 246.364 254.591,246.817 252.900,247.211 251.800 C 247.604 250.700,248.148 248.540,248.420 247.000 C 248.692 245.460,249.242 242.659,249.641 240.777 C 251.023 234.267,251.548 216.895,250.480 213.026 C 250.101 211.651,249.918 211.586,247.800 212.079 " stroke="none" fill="#46c7eb" fill-rule="evenodd"></path><path id="path2" d="M66.000 0.600 C 66.000 1.066,65.470 1.200,63.626 1.200 C 60.911 1.200,59.200 1.722,59.200 2.551 C 59.200 2.952,58.470 3.206,56.738 3.407 C 54.892 3.621,54.054 3.932,53.392 4.646 C 52.812 5.272,52.064 5.600,51.215 5.600 C 50.293 5.600,49.599 5.945,48.800 6.800 C 48.101 7.548,47.281 8.000,46.621 8.000 C 46.026 8.000,45.126 8.438,44.564 9.000 C 44.014 9.550,43.317 10.000,43.015 10.000 C 41.856 10.000,41.200 10.522,41.200 11.443 C 41.200 12.281,41.014 12.401,39.700 12.406 C 38.011 12.413,37.457 12.687,37.083 13.700 C 36.941 14.085,36.495 14.400,36.093 14.400 C 35.160 14.400,34.400 15.154,34.400 16.080 C 34.400 16.581,34.096 16.800,33.400 16.800 C 32.600 16.800,32.400 17.000,32.400 17.800 C 32.400 18.586,32.197 18.800,31.450 18.800 C 30.923 18.800,29.821 19.422,28.972 20.200 C 28.131 20.970,27.204 21.600,26.912 21.600 C 26.619 21.600,26.214 22.036,26.012 22.569 C 25.798 23.131,25.255 23.594,24.722 23.669 C 24.122 23.754,23.755 24.114,23.672 24.699 C 23.594 25.250,23.181 25.690,22.607 25.834 C 22.068 25.969,21.569 26.469,21.434 27.008 C 21.304 27.524,20.848 28.058,20.420 28.194 C 19.991 28.330,19.535 28.776,19.405 29.185 C 19.275 29.594,18.726 30.219,18.184 30.573 C 17.643 30.928,17.200 31.400,17.200 31.623 C 17.200 31.845,16.570 32.657,15.800 33.427 C 14.979 34.248,14.400 35.223,14.400 35.786 C 14.400 36.475,14.147 36.780,13.500 36.872 C 12.866 36.962,12.564 37.313,12.477 38.059 C 12.403 38.704,12.052 39.198,11.582 39.321 C 10.746 39.539,10.000 41.084,10.000 42.598 C 10.000 43.270,9.743 43.581,9.115 43.672 C 8.474 43.765,8.155 44.168,7.959 45.132 C 7.810 45.865,7.218 46.955,6.644 47.554 C 5.974 48.253,5.600 49.091,5.600 49.893 C 5.600 50.732,5.288 51.388,4.649 51.890 C 3.965 52.428,3.617 53.223,3.411 54.719 C 3.254 55.864,2.975 56.800,2.791 56.800 C 1.923 56.800,1.200 58.177,1.200 59.829 C 1.200 61.137,1.043 61.600,0.600 61.600 C 0.068 61.600,0.000 77.244,0.000 200.000 C 0.000 317.752,0.083 338.400,0.555 338.400 C 0.961 338.400,1.153 339.163,1.271 341.248 C 1.403 343.592,1.589 344.223,2.319 344.815 C 2.903 345.287,3.294 346.171,3.462 347.399 C 3.663 348.864,3.920 349.341,4.659 349.622 C 5.333 349.879,5.602 350.296,5.605 351.090 C 5.615 353.004,6.042 353.924,7.038 354.174 C 7.791 354.363,8.000 354.680,8.000 355.634 C 8.000 357.148,8.640 358.400,9.414 358.400 C 9.767 358.400,10.000 358.784,10.000 359.364 C 10.000 359.945,10.478 360.731,11.200 361.339 C 11.860 361.894,12.400 362.642,12.400 363.000 C 12.400 363.954,13.151 365.200,13.726 365.200 C 14.000 365.200,14.428 365.740,14.678 366.400 C 14.982 367.205,15.405 367.600,15.965 367.600 C 16.578 367.600,16.800 367.853,16.800 368.554 C 16.800 369.130,17.196 369.767,17.800 370.163 C 18.350 370.524,18.801 371.039,18.803 371.309 C 18.804 371.579,19.344 372.107,20.003 372.481 C 20.661 372.856,21.200 373.441,21.200 373.781 C 21.200 374.175,21.564 374.400,22.200 374.400 C 22.896 374.400,23.200 374.619,23.200 375.120 C 23.200 376.042,23.958 376.800,24.880 376.800 C 25.381 376.800,25.600 377.104,25.600 377.800 C 25.600 378.639,25.788 378.800,26.773 378.800 C 27.756 378.800,27.967 378.979,28.073 379.900 C 28.163 380.677,28.457 381.037,29.075 381.125 C 29.621 381.202,29.998 381.579,30.075 382.125 C 30.163 382.743,30.523 383.037,31.300 383.127 C 32.082 383.217,32.400 383.479,32.400 384.035 C 32.400 384.504,32.841 385.012,33.500 385.302 C 34.105 385.569,34.835 386.105,35.122 386.493 C 35.409 386.880,36.321 387.306,37.149 387.438 C 38.338 387.628,38.746 387.923,39.092 388.839 C 39.416 389.697,39.793 390.000,40.538 390.000 C 41.173 390.000,41.634 390.278,41.785 390.751 C 41.932 391.216,42.704 391.693,43.811 392.003 C 44.795 392.279,45.600 392.648,45.600 392.823 C 45.600 393.631,46.984 394.400,48.438 394.400 C 49.731 394.400,50.085 394.572,50.378 395.341 C 50.661 396.087,51.136 396.337,52.668 396.546 C 53.979 396.725,54.814 397.093,55.266 397.690 C 55.816 398.417,56.424 398.598,58.766 398.730 C 60.839 398.847,61.600 399.039,61.600 399.445 C 61.600 399.917,82.190 400.000,199.600 400.000 C 322.000 400.000,337.600 399.932,337.600 399.400 C 337.600 398.940,338.108 398.800,339.771 398.800 C 341.790 398.800,343.200 398.160,343.200 397.244 C 343.200 397.080,344.145 396.778,345.300 396.573 C 347.019 396.268,347.423 396.040,347.525 395.320 C 347.633 394.561,347.937 394.424,349.725 394.320 C 351.488 394.218,351.818 394.073,351.921 393.353 C 352.018 392.670,352.445 392.437,354.121 392.153 C 355.843 391.861,356.222 391.645,356.328 390.900 C 356.423 390.233,356.722 390.000,357.485 390.000 C 358.101 390.000,358.962 389.530,359.633 388.829 C 360.248 388.185,361.258 387.600,361.876 387.529 C 362.688 387.436,363.036 387.150,363.128 386.500 C 363.204 385.963,363.535 385.600,363.948 385.600 C 364.844 385.600,365.600 384.832,365.600 383.920 C 365.600 383.434,365.901 383.200,366.528 383.200 C 367.038 383.200,368.058 382.663,368.793 382.006 C 369.528 381.350,370.451 380.711,370.844 380.586 C 371.238 380.461,371.670 380.009,371.806 379.580 C 371.942 379.152,372.476 378.696,372.992 378.566 C 373.531 378.431,374.031 377.932,374.166 377.393 C 374.310 376.819,374.750 376.406,375.301 376.328 C 375.886 376.245,376.246 375.878,376.331 375.278 C 376.406 374.745,376.869 374.202,377.431 373.988 C 377.964 373.786,378.400 373.375,378.400 373.076 C 378.400 372.776,379.480 371.407,380.800 370.033 C 382.120 368.658,383.200 367.309,383.200 367.035 C 383.200 366.760,383.662 366.288,384.226 365.986 C 384.828 365.664,385.348 364.960,385.483 364.284 C 385.610 363.650,386.003 363.025,386.357 362.895 C 387.311 362.544,387.587 361.966,387.594 360.300 C 387.599 358.964,387.711 358.800,388.610 358.800 C 389.415 358.800,389.669 358.553,389.863 357.586 C 389.996 356.918,390.436 356.195,390.839 355.979 C 391.243 355.763,391.773 354.824,392.018 353.893 C 392.262 352.962,392.827 351.915,393.273 351.567 C 393.802 351.154,394.156 350.286,394.294 349.067 C 394.427 347.882,394.699 347.200,395.038 347.200 C 395.832 347.200,396.275 346.089,396.593 343.300 C 396.795 341.535,397.046 340.800,397.449 340.800 C 398.278 340.800,398.800 339.089,398.800 336.374 C 398.800 334.530,398.934 334.000,399.400 334.000 C 399.932 334.000,400.000 318.889,400.000 200.400 C 400.000 81.911,399.932 66.800,399.400 66.800 C 398.934 66.800,398.800 66.268,398.800 64.416 C 398.800 62.456,398.640 61.883,397.900 61.199 C 397.256 60.604,396.885 59.604,396.597 57.684 C 396.247 55.354,396.076 54.983,395.297 54.872 C 394.532 54.763,394.399 54.498,394.394 53.072 C 394.387 51.226,394.131 50.664,393.128 50.294 C 392.697 50.135,392.356 49.383,392.178 48.192 C 391.974 46.829,391.666 46.231,391.020 45.936 C 390.437 45.671,390.015 44.972,389.770 43.868 C 389.519 42.738,389.110 42.073,388.500 41.805 C 387.892 41.538,387.600 41.066,387.600 40.349 C 387.600 39.550,387.352 39.225,386.600 39.036 C 385.965 38.876,385.600 38.503,385.600 38.011 C 385.600 36.792,384.749 35.238,383.940 34.981 C 383.534 34.852,383.094 34.315,382.961 33.788 C 382.829 33.260,382.379 32.720,381.961 32.588 C 381.544 32.455,381.092 31.907,380.957 31.370 C 380.813 30.796,380.326 30.296,379.779 30.159 C 379.225 30.020,378.796 29.574,378.723 29.062 C 378.645 28.516,378.264 28.152,377.684 28.070 C 377.037 27.978,376.699 27.596,376.534 26.770 C 376.354 25.871,376.080 25.600,375.350 25.600 C 374.617 25.600,374.400 25.383,374.400 24.650 C 374.400 23.920,374.129 23.646,373.230 23.466 C 372.404 23.301,372.022 22.963,371.930 22.316 C 371.848 21.736,371.484 21.355,370.938 21.277 C 370.426 21.204,369.980 20.775,369.841 20.221 C 369.701 19.665,369.202 19.187,368.603 19.037 C 368.052 18.898,367.600 18.621,367.600 18.421 C 367.600 17.582,366.249 16.800,364.798 16.800 C 363.410 16.800,363.240 16.688,363.127 15.700 C 363.036 14.913,362.744 14.564,362.101 14.472 C 361.540 14.393,361.110 13.979,360.957 13.372 C 360.755 12.566,360.465 12.400,359.257 12.399 C 358.084 12.398,357.644 12.164,357.000 11.200 C 356.538 10.508,355.847 10.002,355.364 10.001 C 354.862 10.000,354.347 9.601,354.073 9.000 C 353.686 8.151,353.348 8.000,351.836 8.000 C 350.338 8.000,350.009 7.857,349.773 7.100 C 349.394 5.886,348.887 5.613,346.995 5.606 C 345.717 5.601,345.309 5.416,344.995 4.700 C 344.677 3.975,344.133 3.737,342.200 3.474 C 340.449 3.236,339.552 2.884,338.884 2.174 C 338.112 1.353,337.592 1.200,335.584 1.200 C 333.732 1.200,333.200 1.066,333.200 0.600 C 333.200 0.068,318.089 0.000,199.600 0.000 C 81.111 0.000,66.000 0.068,66.000 0.600 M252.200 74.356 C 253.080 74.762,254.250 75.582,254.800 76.179 L 255.800 77.263 256.052 93.931 C 256.889 149.367,256.329 221.049,255.008 227.400 C 254.688 228.940,254.231 232.270,253.992 234.800 C 253.753 237.330,253.228 240.660,252.826 242.200 C 252.423 243.740,251.706 246.530,251.233 248.400 C 250.759 250.270,250.040 253.112,249.634 254.716 C 249.227 256.320,248.627 257.940,248.298 258.316 C 247.970 258.692,247.575 259.720,247.421 260.600 C 247.267 261.480,246.820 262.752,246.427 263.428 C 246.034 264.103,245.397 265.633,245.011 266.828 C 244.625 268.022,244.084 269.183,243.807 269.406 C 243.531 269.629,243.176 270.398,243.019 271.115 C 242.861 271.832,242.325 272.910,241.827 273.510 C 241.329 274.109,240.800 275.100,240.651 275.710 C 240.502 276.321,240.024 277.176,239.590 277.610 C 239.155 278.045,238.800 278.626,238.800 278.901 C 238.800 279.177,238.170 280.289,237.400 281.372 C 236.630 282.455,236.000 283.573,236.000 283.856 C 236.000 284.140,235.652 284.558,235.227 284.786 C 234.802 285.013,234.327 285.601,234.171 286.091 C 234.015 286.582,232.923 288.192,231.744 289.670 C 230.565 291.148,229.600 292.543,229.600 292.769 C 229.600 292.996,229.150 293.476,228.600 293.837 C 228.050 294.197,227.600 294.712,227.600 294.980 C 227.600 295.248,227.105 295.919,226.500 296.471 C 225.895 297.023,224.680 298.332,223.800 299.381 C 220.485 303.331,208.878 314.400,208.052 314.400 C 207.803 314.400,207.600 314.664,207.600 314.986 C 207.600 315.308,207.195 315.780,206.700 316.034 C 206.205 316.288,205.440 316.825,205.000 317.228 C 202.414 319.594,201.453 320.400,201.219 320.400 C 201.074 320.400,200.269 321.030,199.428 321.800 C 198.587 322.570,197.718 323.200,197.496 323.200 C 197.273 323.200,196.687 323.605,196.193 324.100 C 195.077 325.218,191.828 327.600,191.418 327.600 C 191.252 327.600,190.761 328.050,190.329 328.600 C 189.896 329.150,189.294 329.600,188.992 329.600 C 188.689 329.600,187.956 330.050,187.362 330.600 C 186.769 331.150,186.146 331.600,185.979 331.600 C 185.812 331.600,184.922 332.230,184.000 333.000 C 183.078 333.770,182.078 334.400,181.776 334.400 C 181.475 334.400,181.049 334.735,180.829 335.145 C 180.610 335.555,179.884 336.117,179.215 336.394 C 178.547 336.671,178.000 337.052,178.000 337.240 C 178.000 337.429,177.325 337.928,176.500 338.349 C 175.675 338.770,174.657 339.494,174.238 339.957 C 173.819 340.421,173.291 340.800,173.064 340.800 C 172.837 340.800,172.252 341.175,171.764 341.633 C 169.954 343.334,165.286 343.389,164.114 341.723 C 163.835 341.325,163.236 340.550,162.784 340.000 C 160.150 336.800,159.200 335.461,159.200 334.950 C 159.200 334.634,158.923 334.269,158.585 334.139 C 158.247 334.009,157.682 333.340,157.330 332.652 C 156.977 331.963,156.174 330.809,155.545 330.086 C 154.915 329.363,154.400 328.508,154.400 328.186 C 154.400 327.864,154.214 327.600,153.986 327.600 C 153.758 327.600,153.216 326.835,152.781 325.900 C 152.347 324.965,151.447 323.480,150.782 322.600 C 149.200 320.506,148.126 319.009,146.311 316.367 C 145.492 315.175,143.991 313.030,142.976 311.600 C 141.961 310.170,140.520 308.100,139.773 307.000 C 137.880 304.210,134.574 299.595,133.614 298.400 C 133.172 297.850,132.808 297.207,132.805 296.972 C 132.802 296.737,132.350 296.153,131.800 295.675 C 131.250 295.197,130.800 294.649,130.800 294.459 C 130.800 294.268,130.172 293.322,129.404 292.356 C 128.636 291.390,128.006 290.418,128.004 290.196 C 128.002 289.974,127.640 289.568,127.200 289.293 C 126.760 289.018,126.400 288.560,126.400 288.274 C 126.400 287.989,125.936 287.135,125.369 286.378 C 123.337 283.662,125.564 278.926,129.700 277.170 C 130.305 276.913,130.800 276.540,130.800 276.342 C 130.800 276.143,131.205 275.805,131.700 275.591 C 132.761 275.131,136.303 272.695,137.288 271.748 C 137.666 271.384,138.318 270.887,138.737 270.643 C 139.397 270.260,142.133 268.399,144.977 266.400 C 150.145 262.768,159.432 254.335,161.618 251.289 C 161.938 250.843,163.055 249.379,164.100 248.035 C 165.145 246.691,166.000 245.427,166.000 245.226 C 166.000 245.026,166.410 244.353,166.910 243.731 C 167.411 243.109,168.078 242.060,168.393 241.400 C 168.708 240.740,169.175 239.930,169.431 239.600 C 169.688 239.270,170.200 238.069,170.571 236.931 C 170.941 235.793,171.492 234.656,171.794 234.405 C 172.097 234.153,172.536 233.057,172.769 231.968 C 173.003 230.880,173.472 229.323,173.812 228.510 C 174.152 227.697,175.007 224.325,175.713 221.016 L 176.997 215.000 177.199 146.200 C 177.309 108.360,177.538 77.130,177.706 76.800 C 178.115 75.998,180.443 74.435,181.859 74.011 C 184.473 73.227,250.456 73.551,252.200 74.356 " stroke="none" fill="#fce413" fill-rule="evenodd"></path><path id="path3" d="M235.731 111.320 L 234.486 112.640 234.046 121.820 C 233.434 134.574,232.842 158.203,232.408 187.200 C 232.205 200.730,231.857 213.240,231.634 215.000 C 231.412 216.760,231.041 220.720,230.810 223.800 C 230.580 226.880,230.118 230.660,229.784 232.200 C 229.450 233.740,228.831 236.620,228.409 238.600 C 227.367 243.480,225.649 249.660,225.175 250.230 C 224.962 250.487,224.501 251.661,224.151 252.839 C 223.587 254.738,220.304 261.705,217.842 266.226 C 215.386 270.736,209.703 278.361,205.000 283.456 C 204.340 284.171,203.601 284.991,203.357 285.278 C 203.113 285.565,201.313 287.329,199.357 289.197 C 196.375 292.046,194.049 294.072,186.394 300.492 C 185.183 301.507,179.504 305.810,178.861 306.200 C 178.497 306.420,177.210 307.336,176.000 308.235 C 174.790 309.134,173.080 310.344,172.200 310.923 C 171.320 311.501,169.700 312.619,168.600 313.406 C 167.500 314.193,165.385 315.645,163.900 316.632 C 162.415 317.620,161.200 318.558,161.200 318.716 C 161.200 318.875,160.681 319.235,160.046 319.515 C 159.411 319.796,158.524 320.335,158.074 320.713 C 157.625 321.091,156.614 321.903,155.828 322.517 C 153.362 324.446,153.576 325.164,158.932 332.939 C 165.896 343.048,168.026 343.946,173.485 339.078 C 173.972 338.644,174.721 338.089,175.149 337.844 C 176.097 337.304,183.790 331.848,188.466 328.400 C 189.511 327.630,191.743 326.010,193.427 324.800 C 212.687 310.961,228.787 293.947,238.279 277.400 C 246.376 263.286,251.551 246.042,253.404 227.000 C 254.894 211.691,254.357 139.215,252.565 113.700 L 252.305 110.000 244.640 110.000 L 236.976 110.000 235.731 111.320 M250.480 213.026 C 251.548 216.895,251.023 234.267,249.641 240.777 C 249.242 242.659,248.692 245.460,248.420 247.000 C 248.148 248.540,247.604 250.700,247.211 251.800 C 246.817 252.900,246.364 254.591,246.203 255.557 C 246.042 256.523,245.482 258.233,244.959 259.357 C 244.436 260.481,244.006 261.647,244.004 261.950 C 243.998 262.712,239.994 271.969,238.791 274.000 C 238.596 274.330,237.610 276.097,236.601 277.928 C 234.782 281.226,231.427 286.320,229.045 289.400 C 228.364 290.280,227.678 291.180,227.519 291.400 C 222.062 298.983,208.202 312.482,197.946 320.206 C 191.574 325.004,188.746 327.116,187.400 328.084 C 186.520 328.717,184.507 330.172,182.927 331.318 C 181.348 332.463,178.767 334.300,177.193 335.400 C 175.618 336.500,173.735 337.896,173.009 338.503 C 169.305 341.595,165.941 341.647,164.014 338.642 C 163.141 337.279,162.256 336.013,159.232 331.800 C 154.944 325.827,154.835 324.675,158.346 322.423 C 159.366 321.768,161.100 320.587,162.200 319.798 C 163.300 319.009,165.440 317.516,166.956 316.481 C 168.473 315.447,170.477 314.060,171.411 313.400 C 172.345 312.740,173.625 311.845,174.255 311.412 C 187.396 302.367,204.218 287.817,210.118 280.393 C 213.753 275.818,214.592 274.677,216.884 271.191 C 219.146 267.752,219.415 267.317,220.600 265.200 C 221.154 264.210,221.775 263.130,221.980 262.800 C 222.728 261.595,224.691 257.362,225.148 255.967 C 225.406 255.179,225.966 253.851,226.392 253.016 C 226.818 252.180,227.284 250.716,227.427 249.761 C 227.570 248.807,227.928 247.825,228.223 247.581 C 228.518 247.336,229.061 245.755,229.430 244.068 C 229.798 242.380,230.527 239.672,231.050 238.049 C 231.572 236.426,232.003 234.356,232.007 233.449 C 232.012 232.542,232.441 230.177,232.963 228.193 C 233.484 226.210,234.045 222.614,234.209 220.203 C 234.609 214.337,235.163 213.729,240.312 213.503 C 242.231 213.419,244.340 213.148,245.000 212.900 C 248.828 211.465,250.057 211.493,250.480 213.026 " stroke="none" fill="#9ce4f4" fill-rule="evenodd"></path><path id="path4" d="M181.859 74.011 C 180.443 74.435,178.115 75.998,177.706 76.800 C 177.538 77.130,177.309 108.360,177.199 146.200 L 176.997 215.000 175.713 221.016 C 175.007 224.325,174.152 227.697,173.812 228.510 C 173.472 229.323,173.003 230.880,172.769 231.968 C 172.536 233.057,172.097 234.153,171.794 234.405 C 171.492 234.656,170.941 235.793,170.571 236.931 C 170.200 238.069,169.688 239.270,169.431 239.600 C 169.175 239.930,168.708 240.740,168.393 241.400 C 168.078 242.060,167.411 243.109,166.910 243.731 C 166.410 244.353,166.000 245.026,166.000 245.226 C 166.000 245.427,165.145 246.691,164.100 248.035 C 163.055 249.379,161.938 250.843,161.618 251.289 C 159.432 254.335,150.145 262.768,144.977 266.400 C 142.133 268.399,139.397 270.260,138.737 270.643 C 138.318 270.887,137.666 271.384,137.288 271.748 C 136.303 272.695,132.761 275.131,131.700 275.591 C 131.205 275.805,130.800 276.143,130.800 276.342 C 130.800 276.540,130.305 276.913,129.700 277.170 C 125.564 278.926,123.337 283.662,125.369 286.378 C 125.936 287.135,126.400 287.989,126.400 288.274 C 126.400 288.560,126.760 289.018,127.200 289.293 C 127.640 289.568,128.002 289.974,128.004 290.196 C 128.006 290.418,128.636 291.390,129.404 292.356 C 130.172 293.322,130.800 294.268,130.800 294.459 C 130.800 294.649,131.250 295.197,131.800 295.675 C 132.350 296.153,132.802 296.737,132.805 296.972 C 132.808 297.207,133.172 297.850,133.614 298.400 C 134.574 299.595,137.880 304.210,139.773 307.000 C 140.520 308.100,141.961 310.170,142.976 311.600 C 143.991 313.030,145.492 315.175,146.311 316.367 C 148.126 319.009,149.200 320.506,150.782 322.600 C 151.447 323.480,152.347 324.965,152.781 325.900 C 153.216 326.835,153.758 327.600,153.986 327.600 C 154.214 327.600,154.400 327.864,154.400 328.186 C 154.400 328.508,154.915 329.363,155.545 330.086 C 156.174 330.809,156.977 331.963,157.330 332.652 C 157.682 333.340,158.247 334.009,158.585 334.139 C 158.923 334.269,159.200 334.634,159.200 334.950 C 159.200 335.461,160.150 336.800,162.784 340.000 C 163.236 340.550,163.835 341.325,164.114 341.723 C 165.286 343.389,169.954 343.334,171.764 341.633 C 172.252 341.175,172.837 340.800,173.064 340.800 C 173.291 340.800,173.819 340.421,174.238 339.957 C 174.657 339.494,175.675 338.770,176.500 338.349 C 177.325 337.928,178.000 337.429,178.000 337.240 C 178.000 337.052,178.547 336.671,179.215 336.394 C 179.884 336.117,180.610 335.555,180.829 335.145 C 181.049 334.735,181.475 334.400,181.776 334.400 C 182.078 334.400,183.078 333.770,184.000 333.000 C 184.922 332.230,185.812 331.600,185.979 331.600 C 186.146 331.600,186.769 331.150,187.362 330.600 C 187.956 330.050,188.689 329.600,188.992 329.600 C 189.294 329.600,189.896 329.150,190.329 328.600 C 190.761 328.050,191.252 327.600,191.418 327.600 C 191.828 327.600,195.077 325.218,196.193 324.100 C 196.687 323.605,197.273 323.200,197.496 323.200 C 197.718 323.200,198.587 322.570,199.428 321.800 C 200.269 321.030,201.074 320.400,201.219 320.400 C 201.453 320.400,202.414 319.594,205.000 317.228 C 205.440 316.825,206.205 316.288,206.700 316.034 C 207.195 315.780,207.600 315.308,207.600 314.986 C 207.600 314.664,207.803 314.400,208.052 314.400 C 208.878 314.400,220.485 303.331,223.800 299.381 C 224.680 298.332,225.895 297.023,226.500 296.471 C 227.105 295.919,227.600 295.248,227.600 294.980 C 227.600 294.712,228.050 294.197,228.600 293.837 C 229.150 293.476,229.600 292.996,229.600 292.769 C 229.600 292.543,230.565 291.148,231.744 289.670 C 232.923 288.192,234.015 286.582,234.171 286.091 C 234.327 285.601,234.802 285.013,235.227 284.786 C 235.652 284.558,236.000 284.140,236.000 283.856 C 236.000 283.573,236.630 282.455,237.400 281.372 C 238.170 280.289,238.800 279.177,238.800 278.901 C 238.800 278.626,239.155 278.045,239.590 277.610 C 240.024 277.176,240.502 276.321,240.651 275.710 C 240.800 275.100,241.329 274.109,241.827 273.510 C 242.325 272.910,242.861 271.832,243.019 271.115 C 243.176 270.398,243.531 269.629,243.807 269.406 C 244.084 269.183,244.625 268.022,245.011 266.828 C 245.397 265.633,246.034 264.103,246.427 263.428 C 246.820 262.752,247.267 261.480,247.421 260.600 C 247.575 259.720,247.970 258.692,248.298 258.316 C 248.627 257.940,249.227 256.320,249.634 254.716 C 250.040 253.112,250.759 250.270,251.233 248.400 C 251.706 246.530,252.423 243.740,252.826 242.200 C 253.228 240.660,253.753 237.330,253.992 234.800 C 254.231 232.270,254.688 228.940,255.008 227.400 C 256.329 221.049,256.889 149.367,256.052 93.931 L 255.800 77.263 254.800 76.179 C 252.317 73.487,254.233 73.615,216.800 73.643 C 198.210 73.657,182.487 73.823,181.859 74.011 M251.332 76.030 C 254.082 76.794,253.923 73.815,254.048 126.809 C 254.297 232.092,254.399 229.065,249.952 247.800 C 243.048 276.888,224.005 302.830,193.427 324.800 C 191.743 326.010,189.511 327.630,188.466 328.400 C 183.790 331.848,176.097 337.304,175.149 337.844 C 174.721 338.089,173.972 338.644,173.485 339.078 C 168.026 343.946,165.896 343.048,158.932 332.939 C 155.085 327.355,154.400 326.197,154.400 325.277 C 154.400 324.759,153.769 323.585,152.998 322.668 C 152.227 321.751,149.606 318.120,147.173 314.600 C 144.740 311.080,142.406 307.750,141.985 307.200 C 141.565 306.650,140.343 304.940,139.269 303.400 C 135.964 298.658,135.083 297.420,132.600 294.022 C 131.280 292.215,129.845 290.166,129.412 289.469 C 128.979 288.771,128.308 287.856,127.922 287.435 C 125.870 285.201,126.160 281.534,128.505 280.058 C 129.217 279.610,131.690 277.892,134.000 276.240 C 136.310 274.588,139.415 272.374,140.900 271.318 C 150.356 264.599,153.201 262.335,157.389 258.200 C 168.868 246.865,175.434 234.102,178.070 218.000 C 178.438 215.752,178.617 197.948,178.781 147.000 C 179.022 72.128,178.848 77.001,181.321 76.005 C 182.628 75.478,249.432 75.502,251.332 76.030 " stroke="none" fill="#f1e859" fill-rule="evenodd"></path></g></svg>